# xmcd
#
# Track frame offsets:
#	150
#	21599
#	39298
#	58948
#	77246
#	92807
#	111294
#	124682
#	152584
#	167360
#	183410
#	200847
#	211575
#	225683
#	235737
#
# Disc length: 3321 seconds
#
# Revision: 1
# Processed by: cddbd v1.5.2PL0 Copyright (c) Steve Scherf et al.
# Submitted via: audiograbber 1.83.01
#
DISCID=c30cf70f
DTITLE=Mircea Baniciu - Tristeti provinciale
DYEAR=1981
DGENRE=Folk
TTITLE0=Tristeti provinciale
TTITLE1=In tren
TTITLE2=Amintire
TTITLE3=Asculta priveste si taci
TTITLE4=Randuri pentru pasarile calatoare
TTITLE5=Avionul
TTITLE6=Cu tine-n gand
TTITLE7=Vara la tara
TTITLE8=Spune-mi
TTITLE9=Esarfa in dar
TTITLE10=Intelegere
TTITLE11=Calatorie
TTITLE12=Hanul ulciorului nesecat
TTITLE13=Hai la joc
TTITLE14=Daca ai ghici
EXTD=
EXTT0=
EXTT1=
EXTT2=
EXTT3=
EXTT4=
EXTT5=
EXTT6=
EXTT7=
EXTT8=
EXTT9=
EXTT10=
EXTT11=
EXTT12=
EXTT13=
EXTT14=
PLAYORDER=
